<?xml version="1.0" encoding="UTF-8" standalone="no"?><!DOCTYPE svg PUBLIC "-//W3C//DTD SVG 1.1//EN" "http://www.w3.org/Graphics/SVG/1.1/DTD/svg11.dtd"><svg width="100%" height="100%" viewBox="0 0 478 478" version="1.1" xmlns="http://www.w3.org/2000/svg" xmlns:xlink="http://www.w3.org/1999/xlink" xml:space="preserve" style="fill-rule:evenodd;clip-rule:evenodd;stroke-linejoin:round;stroke-miterlimit:1.41421;"><path d="M341.333,85.333l-290.133,0c-28.277,0 -51.2,22.923 -51.2,51.2l0,290.133c0,28.277 22.923,51.2 51.2,51.2l290.133,0c28.277,0 51.2,-22.923 51.2,-51.2l0,-290.133c0,-28.277 -22.923,-51.2 -51.2,-51.2Z" style="fill:#777778;fill-rule:nonzero;"/><path d="M426.667,0l-307.2,0c-28.124,-0.001 -50.984,22.684 -51.2,50.807c0,0.137 0,0.256 0,0.393l273.067,0c47.105,0.056 85.277,38.228 85.333,85.333l0,273.067c0.137,0 0.256,0 0.393,0c28.124,-0.216 50.808,-23.076 50.807,-51.2l0,-307.2c0,-28.277 -22.923,-51.2 -51.2,-51.2Z" style="fill:#777778;fill-rule:nonzero;"/></svg>